<?xml version="1.0" encoding="utf-8"?>
<!-- Generator: Adobe Illustrator 25.4.1, SVG Export Plug-In . SVG Version: 6.00 Build 0)  -->
<svg version="1.1" id="Layer_1" xmlns="http://www.w3.org/2000/svg" xmlns:xlink="http://www.w3.org/1999/xlink" x="0px" y="0px"
	 viewBox="0 0 1366 1013.22" style="enable-background:new 0 0 1366 1013.22;" xml:space="preserve">
<style type="text/css">
	.st0{fill:#0B3E60;stroke:#0B3E60;stroke-width:2.001;stroke-miterlimit:10;}
	.st1{fill:#0B3E60;stroke:#0B3E60;stroke-width:1.993;stroke-miterlimit:10;}
	.st2{fill:#0B3E60;stroke:#0B3E60;stroke-width:2.1166;stroke-miterlimit:10;}
	.st3{fill:#0B3E60;stroke:#0B3E60;stroke-width:1.2609;stroke-miterlimit:10;}
	.st4{fill:#0B3E60;}
	.st5{fill:#0B3E60;stroke:#0B3E60;stroke-miterlimit:10;}
	.st6{fill:#0B3E60;stroke:#0B3E60;stroke-width:15;stroke-miterlimit:10;}
	.st7{font-family:'Charter-Roman';}
	.st8{font-size:464.789px;}
	.st9{fill:#0B3E60;stroke:#0B3E60;stroke-width:8.938;stroke-miterlimit:10;}
	.st10{font-family:'Silom';}
	.st11{font-size:487.235px;}
</style>
<path class="st0" d="M285.78,526.03c3.32,4.15,4.96,8.1,5.57,9.66c1.06,2.73,2.89,7.6,2.48,13.69c-0.17,2.44-0.68,4.98-1.86,8.05
	c-4.65,12.19-20.12,34.07-21.66,36.24c-0.89,1.57-1.78,2.17-2.48,2.42c-1.07,0.38-1.44,0.61-3.09,0.81c-1.73,0.2-1.84,0.08-3.09,0
	c-1.47-0.09-2.55-1.1-3.09-1.61c-1.42-1.33-2.08-2.99-2.48-4.03c-0.43-1.13-0.49-1.66-1.24-5.64c-0.91-4.82-1.05-5.23-1.24-5.64
	c-1.25-2.73-3.59-3.75-4.33-4.03c-3.76-1.4-7.24,1.52-9.28,3.22c-3.29,2.75-5.51,6.33-7.43,10.47c-1.56,3.37-4.41,10.34-6.19,23.35
	c-1.44,10.52-2.84,20.78,0,33.02c1.07,4.59,2.55,10.7,6.81,16.11c4.14,5.25,8.98,7.39,10.52,8.05c0.85,0.36,2.88,1.17,5.57,1.61
	c1.8,0.29,4.31,0.68,7.43,0c4.27-0.93,7.23-3.33,8.04-4.03c4.96-4.21,7.41-10.43,8.04-12.08c1.2-3.12,1.6-5.5,3.71-8.86
	c1.88-2.98,3.25-3.78,3.71-4.03c2.32-1.23,4.51-0.55,6.19,0c3.22,1.06,5.31,3.02,8.04,5.64c4.74,4.54,4.14,4.07,7.78,8.82
	c0.64,0.83,3.01,3.47,3.98,6.48c0.4,1.24,0.54,2.32,0.62,3.22c0.63,6.84-0.62,12.88-0.62,12.88c-2.6,12.55-11.21,25.75-11.76,26.57
	c-3.8,5.75-6.68,10.4-11.95,16.26c-4.79,5.34-7.62,7.04-10.95,9.51c-1.46,1.08-7.97,5.75-17.33,7.25
	c-8.78,1.41-15.41-0.72-22.89-3.22c-6.47-2.16-15.97-5.34-25.99-13.69c-16.56-13.8-24.18-33.12-26.61-39.46
	c0,0-16.1-42.06-1.86-95.02c1.36-5.06,4.17-14.16,8.04-24.16c4.35-11.21,7.24-18.68,12.38-26.57c9.41-14.48,20.39-21.24,24.13-23.35
	c4.77-2.7,17.84-9.83,34.65-6.44C256.08,507.51,273.84,511.09,285.78,526.03z"/>
<path class="st1" d="M380.34,425.56c-7.4,1.91-12.66,4.86-14.73,6.04c-4.99,2.85-8.31,5.07-14.73,9.39
	c-6.23,4.19-10.79,7.43-15.47,11.41c-0.43,0.37-3.4,2.91-6.63,6.71c-2.31,2.72-3.15,4.18-3.68,5.37c-0.91,2-1.33,3.98-1.47,6.04
	c-0.99,14.35-2.91,242.9-4.42,253.64c-0.06,0.41-0.41,2.56,0,5.37c0.16,1.1,0.78,5.39,3.68,8.72c2.92,3.36,6.97,4.39,11.05,5.37
	c6.69,1.61,10.46,0.81,25.78,0.67c3.45-0.03,6.27-0.02,8.1,0c1-0.02,2.3-0.17,3.68-0.67c0,0,3.99-1.45,6.63-6.04
	c4.1-7.12,10.9-273.58,11.79-308.66c0.17-1.06,0.16-2.43-0.74-3.36C388.09,424.45,385.84,424.14,380.34,425.56z"/>
<path class="st2" d="M460.49,381.63c-1.03-0.03-8.77-0.23-18.05,1.48c0,0-6.9,1.07-15.04,5.19c-0.62,0.31-1.4,0.73-2.26,1.48
	c-3.73,3.3-3.73,8.67-3.76,10.38c-0.11,6.82-3.61,147.09-8.27,339.51c-0.17,1.19-0.28,3.24,0.75,5.19
	c3.19,6.05,14.56,5.95,18.8,5.93c32.69-0.18,112.91,1.28,118.84,1.48c2.8,0.1,4.12,0.07,6.77,0c7.06-0.17,10.59-0.26,13.54-1.48
	c5.19-2.15,8.1-6.12,9.03-7.41c1.62-2.27,2.51-4.43,3.01-5.93c0.07-1.7,0.83-19.97,0-25.94c-0.14-1.02-0.37-1.98-0.75-2.97
	c-0.23-0.59-1.37-3.41-4.51-5.93c-3.23-2.59-6.77-3.41-8.27-3.71c-14.93-2.9-68.99-0.08-94.02,0c-1.13,0-2.1,0.02-2.26,0
	c-0.08-0.01-1.88-0.2-3.01-0.74c0,0,0,0,0,0c-1.06-1.04-2.63-3.34-3.01-4.45c-1.38-4.05-0.59-48.25,0-74.87
	c0.03-0.68,0.18-1.77,0.75-2.96c0.16-0.34,1.26-2.53,3.76-3.71c1.34-0.63,2.55-0.71,3.01-0.74c8.06-0.47,70.16-0.02,78.23,0
	c1.08,0,1.93,0,2.25,0c1,0,3.12-0.15,5.26-1.48c3.57-2.22,4.37-5.96,4.51-6.67c-0.07-26.25-0.05-36.67,0-37.81
	c0-0.07,0.02-0.36,0-0.74c0,0-0.08-1.59-0.75-2.97c-1.11-2.27-6.77-2.22-6.77-2.22c-5.83,0.05-38.49-0.03-83.49,0
	c-0.53,0.1-1.33,0.18-2.25,0c-2.83-0.57-4.22-3.13-4.51-3.71c-0.74-1.47-0.8-2.87-0.75-3.71c1-32.12,2.01-64.24,3.01-96.37
	c0.31-0.56,0.8-1.35,1.5-2.22c2.59-3.18,5.83-4.51,7.52-5.19c9.87-3.93,21.81-2.97,21.81-2.97c13.46,1.08,23.21,5.84,29.33,8.9
	c9.87,4.93,16.74,10.6,18.8,12.6c5.73,5.57,6.02,5.93,6.02,5.93c0.22,0.28,0.69,0.89,1.5,1.48c0,0,1.8,1.31,4.51,1.48
	c2.71,0.17,9.85-2.14,19.56-10.38c8.55-7.26,12.37-13.42,14.29-17.05c0.13-0.24,0.55-0.72,0.75-1.48c0.57-2.19-0.96-4.45-2.26-5.93
	c-2.21-2.88-5.46-6.82-9.78-11.12c-4.8-4.77-11.47-10.53-23.32-17.79c-9.42-5.77-25.08-15.22-48.14-22.24
	C512.39,389.79,488.38,382.48,460.49,381.63z"/>
<path class="st3" d="M683.92,225.68c-1.99,0-15.17,2.02-41.73,0c-1.42-0.11-5.22-0.4-9.94,1.97c-3.05,1.54-6.96,3.6-9.94,9.85
	c-1.97,4.13-2.85,8.68-3.97,17.72c-1.12,8.99-2.39,21.65-2.98,37.42c1.14,298.77,0.94,415.58,0,425.36c-0.09,0.96-0.75,6.69,0,13.78
	c0,0,0.89,8.48,3.97,15.75c6,14.17,24.12,11.23,31.8,9.85c16.93-3.06,25.4-4.59,38.75-9.85c8.48-3.34,27.47-11.37,50.68-27.57
	c11.51-8.04,18.16-13.97,24.84-21.66c10.17-11.72,16.55-23.09,19.87-29.54c3.82-7.41,7.23-13.43,8.94-17.72
	c3.89-9.76,5.86-14.78,6.96-21.66c0.55-3.47,1.99-15.76-0.99-25.6c-0.86-2.84-0.96-2.89-3.97-11.82c-2.91-8.62-3.5-11.35-4.97-15.75
	c-2.05-6.14-5.61-16.82-11.92-23.63c-2.25-2.43-7.57-8.16-13.91-5.91c-3.82,1.36-6.3,5-10.93,11.82c-4.95,7.29-6.23,11.4-9.94,17.72
	c-3.24,5.54-7.13,9.6-14.9,17.72c-18.93,19.77-26.11,21.33-29.81,21.66c-1.69,0.15-3.08,0.08-3.97,0c-0.33-120.78,0-241.56,0-362.34
	c0-5.91,0.04-7.62-0.99-13.78c-0.37-2.23-1.75-9.19-4.97-11.82C687.35,225.59,684.87,225.68,683.92,225.68z"/>
<g id="Layer_2">
	<g id="Layer_3">
	</g>
</g>
<g>
	<g>
		<path class="st4" d="M829.9,871.5c65.7-0.78,131.39-1.86,197.07-3.52c13.43-0.34,26.87,0.88,40.33,0.42
			c19.61-0.66,39.21-2.8,58.61-5.68c40.41-5.98,79.09-19.87,114.51-40.21c38.31-22,70.02-55.4,88.47-95.68
			c12.34-26.94,19.83-55.17,22.81-84.65c4.48-44.29-4-89.36-23.65-129.25c-15.39-31.24-38.48-58.95-65.56-80.74
			c-45.27-36.43-101.4-61.46-158.98-69.56c-9.24-1.3-18.5-2.38-27.81-3c6.96,6.96,13.92,13.92,20.89,20.89
			c-3.91-60.7-24.06-119.42-58.94-169.26C990.22,143.49,919.84,94.46,838.54,77.03c-59.06-12.66-119.39-9.47-178.09,3.25
			c-70.13,15.19-134.59,49.43-188.28,96.76c-42.19,37.2-78.66,82.95-104.72,132.72c-3.69,7.05-7.18,14.21-10.48,21.46
			c-4.53,9.92-3.16,22.95,7.49,28.58c9.17,4.85,23.73,3.12,28.58-7.49c7.19-15.76,15.29-31.09,24.32-45.88
			c5.54-9.06,11.42-17.92,17.62-26.54c1.66-2.31,3.34-4.6,5.05-6.87c0.97-1.29,1.93-2.57,2.92-3.84c-0.54,0.7-2.21,2.8,0.35-0.41
			c1.58-1.97,3.15-3.94,4.74-5.9c11.93-14.67,24.58-28.74,38.15-41.91c9.44-9.17,19.28-17.91,29.52-26.19
			c1.39-1.12,2.79-2.24,4.19-3.34c0.79-0.62,1.61-1.21,2.38-1.86c-0.25,0.21-4.08,3.11-1.33,1.04c2.98-2.25,5.96-4.49,8.99-6.67
			c6.32-4.56,12.77-8.94,19.35-13.13c14.2-9.05,28.97-17.21,44.21-24.37c3.73-1.75,8.95-3.04,12.22-5.48
			c-0.42,0.31-4.38,1.81-0.81,0.35c0.94-0.38,1.87-0.77,2.81-1.15c2.37-0.96,4.75-1.9,7.13-2.81c8.85-3.38,17.82-6.43,26.9-9.14
			c13.02-3.89,26.24-6.99,39.55-9.68c4.71-0.95,9.44-1.84,14.18-2.66c2.75-0.47,5.51-0.92,8.27-1.34c1.3-0.2,2.6-0.39,3.91-0.58
			c0.67-0.1,1.34-0.19,2.01-0.28c3.9-0.55-5.15,0.66-1.44,0.2c30.84-3.82,62-4.57,92.92-1.01c1.24,0.14,2.48,0.31,3.72,0.45
			c2.96,0.34-4.03-0.58-1.06-0.15c2.27,0.33,4.53,0.66,6.79,1.02c4.61,0.74,9.2,1.57,13.77,2.51c9.48,1.94,18.88,4.3,28.14,7.09
			c9.71,2.93,19.25,6.36,28.63,10.22c-4.6-1.89,2.92,1.31,3.8,1.71c2.41,1.09,4.81,2.22,7.19,3.38c4.86,2.36,9.65,4.85,14.37,7.48
			c9.29,5.16,18.31,10.83,26.99,16.95c2.03,1.43,4.04,2.89,6.04,4.37c1.09,0.81,2.22,1.6,3.27,2.46c-0.53-0.43-3.36-2.67-0.39-0.28
			c3.72,2.99,7.41,6,11,9.13c13.24,11.53,25.47,24.2,36.59,37.78c1.28,1.56,2.53,3.14,3.78,4.71c1.4,1.76,1,3.13-0.44-0.59
			c0.24,0.61,1.23,1.61,1.57,2.07c2.28,3.03,4.5,6.09,6.67,9.2c4.01,5.73,7.84,11.59,11.48,17.56c5.87,9.63,11.25,19.56,16.08,29.75
			c1.72,3.64,3.33,7.32,4.95,11.01c-3.52-8.01-0.98-2.32-0.16-0.29c1.63,4.04,3.17,8.11,4.63,12.21
			c6.81,19.19,11.47,38.94,14.51,59.06c0.73,4.81-0.45-3.75-0.09-0.64c0.11,0.91,0.23,1.82,0.33,2.73c0.23,1.97,0.44,3.95,0.64,5.92
			c0.35,3.62,0.64,7.24,0.87,10.87c0.76,11.85,8.98,20.1,20.89,20.89c3.49,0.23,6.97,0.51,10.45,0.85c1.92,0.19,3.83,0.4,5.75,0.62
			c0.99,0.12,2.36,0.55,3.33,0.41c-1.84,0.27-4.16-0.58-0.73-0.08c9.5,1.38,18.93,3.22,28.25,5.51c10.52,2.58,20.89,5.75,31.06,9.48
			c4.07,1.5,8.1,3.1,12.11,4.76c0.65,0.27,1.29,0.54,1.94,0.81c4.02,1.67-5.5-2.35-1.85-0.78c19.13,8.26,37.56,17.97,54.74,29.79
			c2.76,1.9,5.49,3.84,8.18,5.84c0.77,0.57,5.48,4.1,2.47,1.85c-2.65-1.99-0.47-0.36,0.18,0.17c0.92,0.74,1.84,1.47,2.76,2.22
			c5.85,4.77,11.49,9.8,16.88,15.08c5.55,5.43,10.84,11.13,15.82,17.09c0.38,0.45,4.39,4.76,4.21,5.19
			c0.02-0.05-3.14-4.17-0.79-1.02c0.54,0.73,1.09,1.45,1.63,2.18c2.6,3.52,5.1,7.12,7.48,10.8c4.83,7.45,9.21,15.2,13.07,23.19
			c0.97,2.01,1.91,4.05,2.82,6.09c0.3,0.67,1.64,3.68,0.45,0.97c-1.39-3.16,0.59,1.47,0.69,1.73c2.02,5.07,3.85,10.22,5.48,15.43
			c3.41,10.92,6.49,22.49,7.62,33.9c-0.46-4.61,0.11,1.26,0.28,2.94c0.25,2.48,0.46,4.97,0.63,7.46c0.34,5.03,0.51,10.08,0.51,15.12
			c0,8.86-0.52,17.72-1.54,26.52c-0.12,1.07-0.36,2.18-0.4,3.25c0.01-0.33,0.78-5.29,0.22-1.77c-0.25,1.61-0.49,3.23-0.76,4.84
			c-0.62,3.68-1.32,7.35-2.12,11.01c-2.25,10.36-5.24,20.57-8.78,30.56c-1.15,3.24-2.49,6.41-3.68,9.64
			c-0.93,2.52,1.8-3.99,0.64-1.5c-0.46,0.99-0.87,2-1.32,3c-0.94,2.09-1.92,4.17-2.93,6.22c-4.14,8.41-8.87,16.53-14.17,24.26
			c-1.64,2.39-3.34,4.73-5.08,7.06c2.6-3.48-1.72,2.11-2.36,2.88c-4.05,4.87-8.34,9.55-12.85,14c-3.63,3.58-7.41,7.01-11.31,10.29
			c-1.09,0.92-2.21,1.81-3.31,2.71c-0.71,0.59-2.94,2.63,0.27-0.19c-2,1.75-4.34,3.22-6.53,4.74
			c-14.74,10.24-30.93,18.65-47.31,25.92c-1.15,0.51-2.31,1.02-3.47,1.51c3.5-1.49,0.51-0.23-0.18,0.04c-2.55,1-5.08,2.01-7.65,2.96
			c-5.18,1.92-10.43,3.69-15.71,5.3c-9.39,2.86-18.92,5.24-28.54,7.17c-4,0.8-8.01,1.53-12.03,2.19c-2.23,0.36-4.47,0.71-6.71,1.03
			c-0.86,0.12-1.76,0.19-2.61,0.37c6.12-1.27,1.9-0.26,0.48-0.08c-7.36,0.92-14.75,1.7-22.14,2.36
			c-19.46,1.73-38.78,1.61-58.27,0.91c-16.96-0.6-34.19,0.72-51.15,1.08c-38.31,0.8-76.62,1.46-114.94,2
			c-11.66,0.16-23.31,0.31-34.97,0.45c-10.92,0.13-21.4,9.51-20.89,20.89C809.52,861.82,818.2,871.63,829.9,871.5L829.9,871.5z"/>
	</g>
</g>
<g>
	<g>
		<path class="st4" d="M391.88,365.84c-39.3-22.29-83.95-31.12-128.65-24.14c-37.41,5.84-71.42,24.35-100.65,47.79
			c-18.79,15.07-35.16,32.75-49.52,52.03c-24.89,33.41-38.9,73.07-43.9,114.18c-4.14,34.11-0.92,69.32,7.37,102.59
			c5.76,23.13,14.74,45.09,27.15,65.5c37.52,61.74,101.53,106.99,170.63,126.66c38.43,10.94,78.12,12.62,117.78,14.03
			c52.02,1.85,104.07,2.65,156.12,3.04c13.23,0.1,26.46,0.16,39.69,0.2c10.78,0.03,21.11-9.5,20.61-20.61
			c-0.5-11.2-9.06-20.58-20.61-20.61c-51.61-0.16-103.23-0.68-154.82-2c-23.49-0.6-46.98-1.37-70.45-2.43
			c-6.85-0.31-13.69-0.66-20.52-1.2c-3.84-0.31-7.68-0.67-11.52-1.09c-2.02-0.22-4.49-0.9-6.51-0.78c4.26-0.25,3.15,0.44,1.44,0.19
			c-1.61-0.24-3.23-0.47-4.84-0.73c-21.42-3.38-42.49-8.98-62.64-17.04c-0.92-0.37-4.66-1.94-1.02-0.38
			c-1.14-0.49-2.28-0.99-3.42-1.49c-2.89-1.28-5.76-2.62-8.6-4.01c-4.19-2.04-8.31-4.2-12.4-6.44c-3.81-2.09-7.59-4.24-11.33-6.48
			c-5.1-3.06-10.11-6.27-15.01-9.63c-2.49-1.71-4.96-3.46-7.39-5.24c-1.43-1.05-2.82-2.17-4.26-3.19c5.73,4.04-0.67-0.55-1.95-1.59
			c-13.19-10.67-25.39-22.58-36.23-35.63c-1.35-1.62-2.65-3.28-3.98-4.92c-1.93-2.38,3.03,4.05,0.17,0.21
			c-0.58-0.77-1.16-1.54-1.73-2.32c-3.22-4.37-6.29-8.86-9.2-13.45c-5.61-8.84-10.63-18.06-14.99-27.58
			c-0.68-1.49-4.05-9.32-1.67-3.67c1.81,4.3,1.09,2.66,0.72,1.7c-0.38-0.99-0.79-1.97-1.16-2.97c-1.2-3.17-2.3-6.37-3.34-9.59
			c-3.5-10.83-6.27-21.9-8.4-33.07c-0.64-3.36-1.22-6.74-1.74-10.13c-0.14-0.93-0.27-1.86-0.41-2.79c-0.51-3.38,0.25,1.87,0.27,2.07
			c-0.23-2.34-0.58-4.68-0.83-7.02c-0.88-8.35-1.39-16.74-1.49-25.14c-0.11-9.11,0.25-18.24,1.14-27.31
			c0.21-2.15,0.02-5.12,0.8-7.09c-0.16,0.4-0.74,4.98-0.15,1.19c0.19-1.2,0.36-2.4,0.56-3.6c0.83-5.13,1.84-10.24,3.03-15.3
			c2.37-10.09,5.44-20.03,9.22-29.68c0.37-0.94,0.72-2.08,1.2-2.99c-2.39,4.55,0.11-0.23,0.48-1.05c1.01-2.26,2.06-4.5,3.14-6.72
			c2.6-5.32,5.43-10.54,8.47-15.63c3.54-5.92,7.35-11.67,11.44-17.23c0.83-1.12,1.62-2.52,2.62-3.49c-1.08,1.03-3.87,4.94-1.43,1.87
			c0.67-0.85,1.35-1.7,2.03-2.54c6.78-8.38,14.08-16.36,21.81-23.88c4.93-4.8,10.05-9.41,15.34-13.82c1.41-1.17,2.84-2.33,4.28-3.48
			c0.58-0.46,1.19-0.91,1.76-1.39c-4.76,4.04-1.69,1.31-0.57,0.47c3.1-2.33,6.26-4.58,9.48-6.76c6.74-4.55,13.73-8.75,20.95-12.51
			c3.76-1.96,7.59-3.73,11.44-5.5c1.54-0.71,2.63-0.28-1.37,0.55c0.99-0.21,2.05-0.84,3-1.22c2.23-0.88,4.48-1.73,6.74-2.52
			c8.48-2.98,17.2-5.32,26.04-6.93c2.28-0.42,4.59-0.69,6.88-1.11c-6.35,1.14,1.6-0.1,2.96-0.22c4.82-0.42,9.67-0.62,14.51-0.61
			c5.66,0.02,11.32,0.32,16.95,0.92c1.18,0.12,2.38,0.23,3.55,0.41c-5.06-0.78,0.69,0.17,1.43,0.29c2.78,0.47,5.54,1.01,8.29,1.62
			c5.18,1.15,10.3,2.53,15.35,4.15c2.36,0.75,4.7,1.56,7.03,2.41c1.58,0.58,5.58,1.24,6.58,2.55c-0.81-0.34-1.61-0.69-2.42-1.03
			c0.81,0.35,1.62,0.7,2.43,1.06c0.79,0.35,1.57,0.7,2.35,1.06c1.86,0.86,3.71,1.74,5.54,2.66c3.24,1.62,6.42,3.33,9.57,5.12
			c9.38,5.32,22.96,2.53,28.2-7.39C404.44,384.27,401.9,371.53,391.88,365.84L391.88,365.84z"/>
	</g>
</g>
<circle class="st4" cx="635.68" cy="846.99" r="48.77"/>
<g>
	<g>
		<path class="st4" d="M726,802.54c3.76,0.03,7.47,0.3,11.21,0.66c2.86,0.27-3.73-0.69-0.94-0.09c0.94,0.2,1.91,0.33,2.86,0.52
			c1.88,0.37,3.74,0.8,5.59,1.29c2.34,0.62,8.3,1.47,10,3.28c-1.44-1.54-3.01-1.39-0.96-0.39c0.82,0.4,1.65,0.77,2.47,1.17
			c1.62,0.8,3.21,1.64,4.76,2.55c1.54,0.89,3.05,1.83,4.52,2.81c0.73,0.49,1.44,1.01,2.17,1.5c2.49,1.67-0.67-0.8-0.91-0.74
			c1.33-0.33,6.52,5.87,7.54,6.96c1.01,1.07,1.9,2.26,2.91,3.32c1.77,1.86-2.1-3.28-0.82-1.07c0.3,0.53,0.74,1.02,1.08,1.52
			c2,2.92,3.48,6.02,5.17,9.1c0.99,1.81-0.82-1.86-0.8-1.95c-0.07,0.29,0.7,1.86,0.85,2.29c0.54,1.54,1.01,3.11,1.4,4.69
			c0.35,1.38,0.47,2.86,0.89,4.21c0.77,2.49-0.29-4.25-0.21-1.62c0.03,1.03,0.19,2.07,0.23,3.11c0.07,1.47,0.07,2.94,0.02,4.4
			c-0.03,0.73-0.59,6.53-0.13,2.93c0.43-3.33-0.3,1.26-0.52,2.2c-0.41,1.79-0.91,3.56-1.5,5.31c-0.26,0.77-0.6,1.53-0.83,2.3
			c-0.58,1.97,0.76-1.88,0.84-1.93c-0.83,0.54-1.68,3.49-2.18,4.4c-0.79,1.44-1.64,2.86-2.55,4.23c-0.34,0.52-0.71,1.02-1.05,1.54
			c-2.28,3.47-0.02-0.67,0.49-0.54c-0.43-0.11-5.75,6.29-6.47,6.96c-1.1,1.03-2.25,1.99-3.38,2.99c-2.83,2.49,0.96-0.68,0.96-0.7
			c-0.05,0.37-2.25,1.62-2.68,1.91c-3.33,2.27-6.82,4.28-10.45,6.03c-0.62,0.3-1.24,0.58-1.85,0.87c-4.27,2.01,4.15-1.47-0.34,0.11
			c-1.76,0.62-3.51,1.27-5.3,1.81c-2.04,0.63-4.1,1.18-6.18,1.66c-1.42,0.33-5.4,0.33-6.39,1.24c0.06-0.05,3.98-0.44,1.66-0.21
			c-1.23,0.12-2.45,0.27-3.69,0.36c-2.5,0.19-5.01,0.27-7.52,0.29c-10.42,0.08-20.41,9.11-19.93,19.93
			c0.48,10.73,8.76,20.02,19.93,19.93c36.66-0.29,76.53-18.64,91.81-53.82c7.48-17.23,9.57-36.54,3.52-54.62
			c-6.16-18.42-18.34-33.12-34.07-44.23c-17.63-12.46-39.85-18.19-61.25-18.36c-10.43-0.08-20.41,9.22-19.93,19.93
			C706.56,793.48,714.83,802.45,726,802.54L726,802.54z"/>
	</g>
</g>
<path class="st5" d="M1039,417.63c-0.74-0.03-6.28-0.2-12.92,1.34c0,0-4.94,0.97-10.77,4.7c-0.44,0.28-1,0.66-1.62,1.34
	c-2.67,2.99-2.67,7.86-2.69,9.41c-0.08,6.18-2.58,133.31-5.92,307.71c-0.12,1.08-0.2,2.94,0.54,4.7c2.28,5.48,10.42,5.4,13.46,5.37
	c23.4-0.16,80.83,1.16,85.07,1.34c2,0.09,2.95,0.06,4.85,0c5.05-0.16,7.58-0.24,9.69-1.34c3.72-1.95,5.8-5.54,6.46-6.72
	c1.16-2.06,1.8-4.01,2.15-5.37c0.05-1.54,0.59-18.1,0-23.51c-0.1-0.92-0.27-1.8-0.54-2.69c-0.16-0.53-0.98-3.09-3.23-5.37
	c-2.31-2.35-4.85-3.09-5.92-3.36c-10.69-2.62-49.39-0.07-67.3,0c-0.81,0-1.5,0.01-1.62,0c-0.06-0.01-1.35-0.18-2.15-0.67
	c0,0,0,0,0,0c-0.76-0.94-1.88-3.02-2.15-4.03c-0.99-3.67-0.42-43.73,0-67.86c0.02-0.61,0.13-1.6,0.54-2.68
	c0.12-0.31,0.9-2.29,2.69-3.36c0.96-0.57,1.82-0.65,2.15-0.67c5.77-0.43,50.23-0.02,56,0c0.77,0,1.38,0,1.61,0
	c0.72,0,2.24-0.14,3.77-1.34c2.55-2.01,3.13-5.4,3.23-6.05c-0.05-23.79-0.04-33.24,0-34.26c0-0.06,0.01-0.32,0-0.67
	c0,0-0.06-1.44-0.54-2.69c-0.8-2.06-4.85-2.02-4.85-2.02c-4.17,0.04-27.56-0.03-59.77,0c-0.38,0.09-0.95,0.17-1.61,0
	c-2.03-0.51-3.02-2.83-3.23-3.36c-0.53-1.34-0.57-2.6-0.54-3.36c0.72-29.11,1.44-58.23,2.15-87.34c0.22-0.5,0.57-1.23,1.08-2.02
	c1.85-2.88,4.17-4.09,5.38-4.7c7.06-3.56,15.61-2.69,15.61-2.69c9.63,0.98,16.62,5.29,21,8.06c7.06,4.47,11.99,9.61,13.46,11.42
	c4.11,5.05,4.31,5.37,4.31,5.37c0.16,0.26,0.49,0.81,1.08,1.34c0,0,1.29,1.19,3.23,1.34c1.94,0.16,7.05-1.94,14-9.41
	c6.12-6.58,8.86-12.16,10.23-15.45c0.09-0.22,0.4-0.66,0.54-1.34c0.41-1.99-0.69-4.03-1.62-5.37c-1.58-2.61-3.91-6.18-7-10.08
	c-3.43-4.32-8.21-9.55-16.69-16.12c-6.75-5.23-17.95-13.8-34.46-20.16C1076.15,425.02,1058.96,418.4,1039,417.63z"/>
<g>
	<g>
		<path class="st4" d="M1076.77,473.84c0.83,0.28,1.65,0.57,2.46,0.88c0.67,0.25,1.33,0.56,2.01,0.79c0.48,0.16-5.54-2.51-2-0.81
			c3.79,1.82,7.48,3.78,10.97,6.14c0.92,0.62,1.8,1.44,2.76,1.97c0.16,0.09-3.77-3.19-2.14-1.63c0.43,0.41,0.92,0.76,1.37,1.15
			c2.21,1.91,4.3,3.96,6.22,6.16c0.43,0.49,0.82,1.03,1.26,1.5c1.61,1.69-1.54-2.01-1.51-1.96c0.52,1.17,1.58,2.28,2.26,3.38
			c0.74,1.19,1.43,2.41,2.07,3.65c0.33,0.64,0.6,1.31,0.94,1.94c1.24,2.3-1.95-6.09-0.25-0.37c0.53,1.78,1.11,3.53,1.52,5.34
			c0.19,0.86,0.3,1.75,0.52,2.6c0.68,2.61-0.25-1.93-0.23-2.13c-0.45,3.09,0.45,6.82,0.3,10.02c-0.13,2.87-0.56,5.69-0.81,8.55
			c-0.01,0.17,0.95-5.74,0.36-2.87c-0.16,0.79-0.26,1.6-0.41,2.39c-0.34,1.82-0.74,3.64-1.2,5.44c-0.81,3.24-1.8,6.43-2.95,9.56
			c-0.26,0.7-0.56,1.39-0.8,2.1c-0.89,2.56,1.17-2.66,1.09-2.52c-0.8,1.46-1.4,3.08-2.14,4.57c-2.62,5.26-5.69,10.29-9.11,15.07
			c-0.37,0.52-0.75,1.02-1.12,1.54c-1.99,2.81,1.52-1.8,1.73-2.21c-0.68,1.29-2.05,2.55-2.99,3.65c-1.64,1.93-3.34,3.81-5.09,5.65
			c-2.95,3.09-6.06,6.02-9.28,8.83c-8.53,7.43-9.72,22.18-4.07,31.56c3.32,5.51,6.46,11.13,9.31,16.9c0.9,1.83,1.78,3.68,2.63,5.54
			c0.44,0.97,0.85,1.96,1.3,2.93c1.25,2.66-2.72-6.73-0.88-2.08c1.63,4.12,3.18,8.26,4.53,12.48c1.45,4.52,2.71,9.09,3.77,13.72
			c0.52,2.29,0.99,4.58,1.4,6.89c0.24,1.31,0.43,2.62,0.66,3.92c0.83,4.85-0.53-5.11-0.23-1.63c0.99,11.15,1.14,22.08-0.31,33.2
			c0.33-2.46,0.66-4.91,0.99-7.37c-1.48,10.23-4.09,20.23-7.69,29.91c-5.12,13.76,5.7,31.3,19.56,34.45
			c15.88,3.62,28.97-4.83,34.45-19.56c19.26-51.76,5.24-110.72-24.52-155.59c-1.36,10.52-2.71,21.04-4.07,31.56
			c19.1-18.18,34.6-41.86,40.61-67.74c3.93-16.93,5.56-36.94-0.36-53.6c-6.18-17.39-17.37-31.19-32.63-41.44
			c-8.73-5.87-18.94-10.24-29.12-12.86c-10.61-2.73-23.26,3.48-25.8,14.65C1059.47,459.66,1065.63,470.06,1076.77,473.84
			L1076.77,473.84z"/>
	</g>
</g>
<text transform="matrix(0.7855 0 0 1 1149.001 744.9379)" class="st6 st7 st8">s</text>
<path class="st6" d="M1169.5,735.11c15-2,30-4,45-6c-10.38-20.41-37.4-71.72-48-68C1156.93,664.46,1164.87,711.16,1169.5,735.11z"/>
<path class="st6" d="M1281.12,538.26c0.62,1.69,0.73,3.23,0.73,3.23c0.09,1.3-0.07,2.42-0.25,3.24c-0.06,0.26-0.11,0.51-0.14,0.78
	c-1.16,10.69-2.31,21.38-3.47,32.07c-0.31,2.85-1.97,5.37-4.46,6.78c-2.34,1.92-4.69,3.84-7.03,5.75c-1.01,0.75-3.04,2.03-5.72,2.08
	c-2.59,0.05-6.41-0.63-6.43-2.34c-0.18-17.27,15.08-44.88,13.5-48.04c-1.67-3.34-3.34-6.67-5.01-10.01
	c-1.69-3.38,1.39-7.17,5.05-6.21c0.99,0.27,1.97,0.54,2.96,0.81c1.8,0.49,3.4,1.54,4.58,2.99
	C1278.43,533.07,1280.38,536.25,1281.12,538.26z"/>
<text transform="matrix(0.6739 0 0 1 795 751.9408)" class="st9 st10 st11">A</text>
</svg>
